<svg id="Layer_1" data-name="Layer 1" xmlns="http://www.w3.org/2000/svg" viewBox="0 0 576 435"><defs><style>.cls-1{fill:#8156d3;}.cls-1,.cls-10,.cls-11,.cls-2,.cls-3,.cls-4,.cls-5,.cls-6,.cls-7,.cls-9{fill-rule:evenodd;}.cls-2{fill:#9060eb;}.cls-3{fill:#6cf5aa;}.cls-4{fill-opacity:0.1;}.cls-5{fill:#333;}.cls-6{fill:#9b9b9b;}.cls-7{fill:#6d49b2;}.cls-8{fill:none;stroke:#6d49b2;stroke-linecap:round;stroke-linejoin:round;stroke-width:5px;}.cls-9{fill:#8354db;}.cls-10{fill:#999;}.cls-11{fill:#ff4bef;}.cls-12{fill:#82fff2;}.cls-13{opacity:0.1;}.cls-13,.cls-15{isolation:isolate;}.cls-14{fill:#640000;}.cls-15{opacity:0.67;}</style></defs><title>hpe-dev-grommet-gremlin-rockin-static-face-mask</title><path id="ear-right" class="cls-1" d="M283.9,152.8l5.1,18.7c-10.8,11.7-21.6,14.4-32.2,8.2-15.9-9.3-10.8-35.7,2.7-39.9C268.4,137,276.6,141.3,283.9,152.8Z"/><path id="body" class="cls-2" d="M433.5,271.3a58.16,58.16,0,0,1,4.6-8.4c0,20.1,1,35.9,3,47.2a13.4,13.4,0,0,1,.3,3.8c6.9,34.1,13.6,64.4,13.6,91.8,0,13.2-.4,23.9-1.2,32.3H317.5c9.7-24.1,14-41.8,16.1-53.7,1.2-6.9-6.4-44.2-19.1-84.9-4.4-14.2-35.2-102.2-37.1-120.4s-4.4-20.3,11.1-31.2c22.1-15.5,56.7-22.2,72.6-23.4a24.44,24.44,0,0,1,4.7.1c-4-7.8-3.8-14.5.7-20.3,8.5-11.1,34.9-6.9,38.2,11.1,2,11.1-3.2,19.7-15.5,25.8,7.2,10.2,13.3,23.9,19,38,2.6,6.5,22.5,74,23.7,81.8C432.4,264.3,432.9,267.9,433.5,271.3Z"/><path id="belly" class="cls-3" d="M382.4,349.2c-1.9-1.8-3-3.2-3.1-4.2a78.54,78.54,0,0,0,10.9,5c28,5,39.9,31.8,40.6,57.3.4,13.4,0,20.6-1.3,29.7H347c2.2-7.5,5-18.1,8.5-31.8,7.9-30.8-16-53.9,21.5-56A48.6,48.6,0,0,1,382.4,349.2Z"/><path id="shadow" class="cls-4" d="M325.4,133c-31.9,14.3-40.7,29.3-26.6,44.8,21.6,23.6,20.6,29.2,15,39.2s-8.5,27.2,4,29.2c10,12.6,28.7,34.8,10.1,49.4s28.4,24.6,43.5,24.6c3.3,19.8,4.1,49,4.1,55.3,0,25.3-6,37.8-13,62.5H317.9c7.9-21.6,16.1-48.7,16.1-56.9,0-14.1-28.1-111.3-35.1-131.4s-28.1-80-21.6-90.6C284.9,146.7,301,138,325.4,133Zm14.9,32.2c24.5-3.7,36.7-4.5,36.7-2.5-6.5,2.5-14.6,4-11.6,13.6-7.2,4.4.6,22.2,11.6,22.2,15.6,0-3.1,11.6-14.6,5.6s-13.5-9.1-17.1-20.2C343,176.5,341.3,170.2,340.3,165.2Z"/><g id="nose"><path class="cls-5" d="M347.1,206c3.2,2.5-.4,13.6-6.4,15.1s-16.4-6.8-11.4-11S343.9,203.5,347.1,206Z"/><path id="highlight" class="cls-6" d="M338.5,209.3c-.1-.5,1.4-1.1,3.3-1.4s3.6-.1,3.7.3-1.4,1.1-3.3,1.4S338.6,209.8,338.5,209.3Z"/></g><g id="eye-left"><path id="eyeball" class="cls-5" d="M365.3,195.8a10.94,10.94,0,0,1-5-15,11.7,11.7,0,0,1,15.5-4.9,10.94,10.94,0,0,1,5,15A11.73,11.73,0,0,1,365.3,195.8Z"/><path class="cls-6" d="M368.8,181.1a2.44,2.44,0,0,1,2.8-1.7,2.2,2.2,0,0,1,2,2.4,2.38,2.38,0,0,1-2.8,1.6A2.11,2.11,0,0,1,368.8,181.1Z"/></g><g id="eye-right"><path class="cls-5" d="M300.7,210.9a10.72,10.72,0,0,1,.5-15.4c4.5-4.1,7.6-3.7,11.8.7s7.7,11.1,3.3,15.2A11.14,11.14,0,0,1,300.7,210.9Z"/><path class="cls-6" d="M305.3,199.1a2.44,2.44,0,0,1,2.8-1.7,2.2,2.2,0,0,1,2,2.4,2.38,2.38,0,0,1-2.8,1.6A2.11,2.11,0,0,1,305.3,199.1Z"/></g><path id="eyebrow-left" class="cls-7" d="M382,162.2c-8.4-.6-14.5-.4-20.3,1.3s-12.6,4.1-16.2,4.9L338,160a23.54,23.54,0,0,1,7-.9c.7,0-1.6-1.9.1-2,2.9-.2,12.4-1.4,15.2-2,6.6-1.3,13.3-1.1,19.6-.6Z"/><path id="eyebrow-right" class="cls-7" d="M308,184.8c-9.3-1.3-14-1.1-18.4.3l-4.5-6.3,2.5.4c-4.2-7.1-4.7-9-1.5-5.8,4.7,4.8,14,.6,17.3,5.1C305.6,181.5,305.6,183,308,184.8Z"/><path id="chin" class="cls-8" d="M354.6,318.5c8.5,2.4,15.5,2.6,21,.7"/><path id="arm-left" class="cls-2" d="M458.9,110.7c-4.9,2.4-13,4.9-17,3.3-6-2.4-11.5-8.5-14-10.5s-4.6-42.7,7.9-42.4,34.3,1.1,35.8,7.7V69l.2-.2c20.3,68.8,29.5,108.2,27.6,118.5q7.8-11.1,11.7-12Q491.3,216,438.3,309.1l-6.7-7.8q47.85-100.2,50.7-113Q484.55,177.05,458.9,110.7Z"/><g id="arm-right"><path id="arm" class="cls-9" d="M327.5,316.5l4.8,7.5q-86.85,51.3-100.1,56.4c-13.2,5.1-97.5-12.1-108.1-14s-14.2-3.3-16.6-10.4,8.5-16.9,18.2-22,23.5,12,37.2,17.2q13.8,5.25,62.7,20.7Z"/><path id="wrench" class="cls-10" d="M89.2,291.4c-3.6-6.2-11.3-5.6-13.8-6.3-10.7-2.9-15-14-14.4-22.2s2.2-9.9,4.7-13.1c.4-.5,1.5-.7,3.1-.4L79.5,268a3,3,0,0,0,3.9,1.2l5.5-2.6a2.93,2.93,0,0,0,1.5-3.9L82,242.9c.8-1.5,1.6-2.3,2.4-2.2,6,.3,10.2,1.1,16.8,5.8,7,5,8.8,15.9,5.6,24.5-1,2.7-5.5,9-2.6,15.5s61.5,109,63.3,112.1a7.7,7.7,0,0,1-2.7,10.2,8.11,8.11,0,0,1-11.2-3C151.1,401.5,92.8,297.6,89.2,291.4Zm69.3,113.7a4.09,4.09,0,1,0-2.9-5A4.27,4.27,0,0,0,158.5,405.1Z"/><path id="fist" class="cls-2" d="M126.4,308.8c14,8.3,20.4,25.2,22.9,34.7s7.5,18.7-7.8,21c-32.2,4.7-35.8-5.5-44.5-27-4.7-11.5,3.7-16.7,11.3-22C114.9,310.9,119.9,305,126.4,308.8Z"/></g><path id="hair" class="cls-11" d="M332,129.8c-12.2,3.6-12.2,13.7-21.3,18.3s-24.7,1.8-32.5-17.9C273,117,277.2,104,290.9,91c3.3,10.5,7.1,18,11.5,22.4-1.1-3.6-.4-7.6,2.1-11.9q5.7,11.1,15.9,12c15.6,1.4,27.1,5.2,34.6,11.7A130,130,0,0,0,332,129.8Z"/><g id="WcNSwx.tif"><path class="cls-12" d="M458.7,212.7c-1.5-8.8-4.5-12.5-8.7-17.9s-13.4-6.2-18-5.8-18.3,5.9-18.8,6.1c-1,.4-9.2,3.9-9.2,3.9l-2.2.4c-7.9,2.4-19.9,2.3-26.4,2.7a44,44,0,0,1-19.7-2.7c-8.3-2.9-11.8-2.8-13.9-2.4s-5.5,1.4-9.7,6.5-5.4,8.2-12.1,14-27.3,14.6-27.3,14.6-.9.1-1.2.5c0,0-8.2,1.1-9.6,1.5s-11.7,2.5-17.5,6.9-8.8,8.8-9.4,15.1a33.42,33.42,0,0,0,1.3,13c.6,2.1,5,13,11.2,17.6s9.4,6.4,13.1,7.3,21.9-.5,24.8-1l2.9-.5c.4.2,1.7-.5,1.7-.5a24.38,24.38,0,0,0,2.8,2.6,42.16,42.16,0,0,1,4.7,4.2c1.4,1.5,17.6,11.8,31,14.6a75.68,75.68,0,0,0,26.4.6c1.2-.2,1.9-.5,6.2-2.6s16.5-10.5,26.3-22,12.2-31.9,12.2-31.9l.9-.4c.9-.4,10.3-4.3,10.6-4.5,0,0,15.3-6.6,18.6-10a27,27,0,0,0,6.1-9.1A36,36,0,0,0,458.7,212.7Zm-151.6,76s-3.2.5-6.9.9-14.5,1.9-17,1.3a32,32,0,0,1-11.4-5.4c-3.6-2.9-11.4-11.2-12.5-18.6s-1.2-14.8,3.7-19.7,13.4-7.7,15.4-8.1a102.3,102.3,0,0,1,14-2.6v0c0,.5,1.5,0,1.5.6s1.1,11.8,1.6,15.3a122.34,122.34,0,0,0,5.7,19.6c2.2,5.3,6.7,16.5,6.7,16.5a1.72,1.72,0,0,0-.8.2Zm147.2-60.4s-1.2,3.4-1.9,4.8-3.2,5.4-4.6,6.6-8.3,4.8-10.1,5.8c-1.4.8-5.9,3-7.7,3.8-.2-.2-.4.1-.8.4s-8.7,3.7-8.7,3.7a43.24,43.24,0,0,0,0-4.5c-.1-3.7-2.2-16.2-4.5-26.6s-8.5-20.6-8.5-20.6l7.4-3.5h0l.6-.3s8.6-4.4,15.9-4.8,8.4.1,12.1,1.2,7.4,6.7,9.2,10.2C454.4,207.8,458,220.1,454.3,228.3Z"/><g class="cls-13"><path class="cls-14" d="M458.7,212.7c-1.5-8.8-4.5-12.5-8.7-17.9s-13.4-6.2-18-5.8-18.3,5.9-18.8,6.1c-1,.4-9.2,3.9-9.2,3.9l-2.2.4c-7.9,2.4-19.9,2.3-26.4,2.7a44,44,0,0,1-19.7-2.7c-8.3-2.9-11.8-2.8-13.9-2.4s-5.5,1.4-9.7,6.5-5.4,8.2-12.1,14-27.3,14.6-27.3,14.6-.9.1-1.2.5c0,0-8.2,1.1-9.6,1.5s-11.7,2.5-17.5,6.9-8.8,8.8-9.4,15.1a33.42,33.42,0,0,0,1.3,13c.6,2.1,5,13,11.2,17.6s9.4,6.4,13.1,7.3,21.9-.5,24.8-1l2.9-.5c.4.2,1.7-.5,1.7-.5a24.38,24.38,0,0,0,2.8,2.6,42.16,42.16,0,0,1,4.7,4.2c1.4,1.5,17.6,11.8,31,14.6a75.68,75.68,0,0,0,26.4.6c1.2-.2,1.9-.5,6.2-2.6s16.5-10.5,26.3-22,12.2-31.9,12.2-31.9l.9-.4c.9-.4,10.3-4.3,10.6-4.5,0,0,15.3-6.6,18.6-10a27,27,0,0,0,6.1-9.1A36,36,0,0,0,458.7,212.7Zm-151.6,76s-3.2.5-6.9.9-14.5,1.9-17,1.3a32,32,0,0,1-11.4-5.4c-3.6-2.9-11.4-11.2-12.5-18.6s-1.2-14.8,3.7-19.7,13.4-7.7,15.4-8.1a102.3,102.3,0,0,1,14-2.6v0c0,.5,1.5,0,1.5.6s1.1,11.8,1.6,15.3a122.34,122.34,0,0,0,5.7,19.6c2.2,5.3,6.7,16.5,6.7,16.5a1.72,1.72,0,0,0-.8.2Zm147.2-60.4s-1.2,3.4-1.9,4.8-3.2,5.4-4.6,6.6-8.3,4.8-10.1,5.8c-1.4.8-5.9,3-7.7,3.8-.2-.2-.4.1-.8.4s-8.7,3.7-8.7,3.7a43.24,43.24,0,0,0,0-4.5c-.1-3.7-2.2-16.2-4.5-26.6s-8.5-20.6-8.5-20.6l7.4-3.5h0l.6-.3s8.6-4.4,15.9-4.8,8.4.1,12.1,1.2,7.4,6.7,9.2,10.2C454.4,207.8,458,220.1,454.3,228.3Z"/></g><path class="cls-12" d="M307,246.54l-.66-1.88c7.94-2.8,20.34-7.38,21.94-8.56l1.42-1.1c4-3.15,13.52-10.51,18.3-11.86a38.58,38.58,0,0,1,11.34-1.34H360c.55,0,1.28.07,2.21.16a40.1,40.1,0,0,0,11.22-.15c6.7-1.15,17.22-3.21,18.21-3.48s5.19-1.63,5.37-1.69l.58,1.92s-4.29,1.29-5.35,1.68c-1.23.34-12,2.43-18.47,3.55A42.43,42.43,0,0,1,362,224c-.87-.08-1.55-.15-2-.15h-.64a36.81,36.81,0,0,0-10.79,1.26c-4.4,1.25-14,8.71-17.62,11.52-.62.49-1.12.88-1.45,1.12C327.14,239.44,309.08,245.82,307,246.54Z"/><path class="cls-12" d="M317.69,267.15c-3.58,0-5.67-.15-5.77-.15l.16-2c.51,0,52.46,3.7,90.59-27.28l1.26,1.56C372.72,264.63,332.47,267.15,317.69,267.15Z"/><path class="cls-12" d="M331.55,292c-3,0-4.74-.13-4.83-.13l.16-2c.43,0,44,3.06,76.8-22.69l1.24,1.58C378,289.93,344,292,331.55,292Z"/><g class="cls-15"><path class="cls-12" d="M297,238.55l-2-.09c0-.12.15-2.8,2.25-3.85l.9,1.78C297.1,236.92,297,238.53,297,238.55Z"/></g><g class="cls-15"><rect class="cls-12" x="306.4" y="229.2" width="5.9" height="2" transform="translate(-69.78 159.83) rotate(-26.14)"/></g><g class="cls-15"><rect class="cls-12" x="317.81" y="222.15" width="7.48" height="2" transform="translate(-68.3 188.42) rotate(-29.67)"/></g><g class="cls-15"><path class="cls-12" d="M331,216.2l-1.6-1.2a69.12,69.12,0,0,0,4-5.71l1.82.82A71.39,71.39,0,0,1,331,216.2Z"/></g><g class="cls-15"><path class="cls-12" d="M341.1,204.1l-1.6-1.2c.11-.15,2.79-3.69,6.35-2.34l-.7,1.88C343,201.62,341.12,204.07,341.1,204.1Z"/></g><g class="cls-15"><path class="cls-12" d="M360.1,206.75c-1.93-.6-5.74-2.26-5.9-2.33l.8-1.84s3.87,1.69,5.7,2.27Z"/></g><g class="cls-15"><path class="cls-12" d="M372.57,208.74c-2.11,0-4.25,0-4.39,0l0-2s5,.1,7.24,0l.08,2C374.75,208.73,373.67,208.74,372.57,208.74Z"/></g><g class="cls-15"><rect class="cls-12" x="382.97" y="206.25" width="7.16" height="2" transform="translate(-23.03 50.34) rotate(-7.24)"/></g><g class="cls-15"><path class="cls-12" d="M402.48,208.08a4,4,0,0,0-2.22-2.53,3.19,3.19,0,0,0-2.34.3l-1-1.7a5.17,5.17,0,0,1,4-.5,5.89,5.89,0,0,1,3.45,3.67Z"/></g><g class="cls-15"><path class="cls-12" d="M409,222.37a47.42,47.42,0,0,0-2.92-7.65l1.82-.84c.11.23,2.66,5.75,3.08,8.15Z"/></g><g class="cls-15"><rect class="cls-12" x="411.65" y="230.11" width="2" height="8.47" transform="translate(-38.64 87.59) rotate(-11.58)"/></g><g class="cls-15"><rect class="cls-12" x="413.3" y="245.6" width="2" height="7.7"/></g><g class="cls-15"><rect class="cls-12" x="408.71" y="263.95" width="7.89" height="2" transform="translate(64.9 610.7) rotate(-77.54)"/></g><g class="cls-15"><rect class="cls-12" x="402.93" y="278.95" width="7.65" height="2" transform="translate(-21.32 526.07) rotate(-64.44)"/></g><g class="cls-15"><rect class="cls-12" x="395.29" y="290.25" width="7.02" height="2" transform="translate(-82.57 401.49) rotate(-49.04)"/></g><g class="cls-15"><rect class="cls-12" x="384.13" y="299.75" width="6.75" height="2" transform="translate(-102.78 316.12) rotate(-39.61)"/></g><g class="cls-15"><path class="cls-12" d="M373.11,310.06a2.43,2.43,0,0,1-.73-.11l.64-1.9c.55.17,2.81-.82,4.73-2.09l1.1,1.67C377.66,308.42,375,310.06,373.11,310.06Z"/></g><g class="cls-15"><rect class="cls-12" x="360.25" y="305.2" width="2" height="7.7" transform="translate(47.55 666.27) rotate(-89.26)"/></g><g class="cls-15"><rect class="cls-12" x="345.4" y="304.23" width="2" height="7.34" transform="translate(-51.2 546.04) rotate(-72.55)"/></g><g class="cls-15"><path class="cls-12" d="M335.39,304.56c-.05,0-5.8-3.4-6.68-3.89l1-1.74c.89.5,6.48,3.77,6.72,3.91Z"/></g><g class="cls-15"><path class="cls-12" d="M322.46,296.37c-2.36-2-6-5-6.26-5.17l1.2-1.6c.41.31,5.73,4.73,6.34,5.23Z"/></g><g class="cls-15"><path class="cls-12" d="M311.17,285.26c-1-1.46-4.19-6.26-4.51-7.11l1.88-.7c.2.5,2.34,3.79,4.29,6.69Z"/></g><g class="cls-15"><path class="cls-12" d="M303.49,271c-.3-.65-2.93-6.39-3.34-7.6l1.9-.64c.31.94,2.46,5.66,3.26,7.4Z"/></g><g class="cls-15"><path class="cls-12" d="M297.74,255.68a72.87,72.87,0,0,1-1.83-7.47l2-.22a72.67,72.67,0,0,0,1.77,7.13Z"/></g></g></svg>