<svg width="549" height="546" viewBox="0 0 549 546" fill="none" xmlns="http://www.w3.org/2000/svg">
<g style="mix-blend-mode:multiply">
<circle r="100.5" transform="matrix(-1 0 0 1 400.5 100.5)" fill="#6AE4FB"/>
</g>
<g style="mix-blend-mode:multiply">
<circle cx="72" cy="474" r="72" fill="#F4AD68"/>
</g>
<g style="mix-blend-mode:multiply">
<circle r="47.5" transform="matrix(-1 0 0 1 501.5 169.5)" fill="#17EBA0"/>
</g>
<g style="mix-blend-mode:multiply">
<circle cx="261.548" cy="354.143" r="159.858" stroke="#7630EA" stroke-width="48"/>
</g>
<mask id="mask0" mask-type="alpha" maskUnits="userSpaceOnUse" x="113" y="89" width="297" height="414">
<path d="M409.99 354.519C409.99 436.501 343.53 502.961 261.548 502.961C179.565 502.961 113.105 436.501 113.105 354.519C113.105 314.984 113.105 89.6582 113.105 89.6582H409.99C409.99 89.6582 409.99 272.536 409.99 354.519Z" fill="#C4C4C4"/>
</mask>
<g mask="url(#mask0)">
<path d="M351.528 142.127C361.771 150.378 367.612 164.188 358.478 175.409C349.344 186.63 328.625 193.358 317.27 184.211C305.915 175.063 308.223 153.504 317.357 142.283C326.491 131.063 341.284 133.875 351.528 142.127Z" fill="#885BDF"/>
<path d="M171.172 176.317C162.023 165.062 167.815 151.255 178.018 143.025C188.221 134.794 202.982 132.02 212.132 143.276C215.516 147.438 217.971 153.014 219.151 158.849C254.854 147.153 322.47 151.959 331.945 173.269C338.678 188.41 342.993 236.866 345.695 285.016C346.807 304.825 347.646 338.829 348.267 356.194C349.439 388.958 353.006 532.725 353.006 532.725H177.133C177.133 532.725 180.824 388.958 181.993 356.194C182.612 338.829 183.449 304.825 184.558 285.016C186.621 248.195 189.628 211.195 193.94 189.051C185.181 187.601 176.337 182.67 171.172 176.317Z" fill="#9060EB"/>
<path d="M327.615 430.939C325.142 396.05 297.969 380.236 265.171 380.236C232.463 380.236 205.878 396.253 203.278 430.939L199.383 534.231H332.889L327.615 430.939Z" fill="#17EBA0"/>
<path d="M260.249 387.066C253.506 384.334 248.096 380.456 244.019 375.432C249.753 377.768 258.323 379.487 269.729 380.586C286.838 382.236 284.296 396.164 260.249 387.066Z" fill="#17EBA0"/>
<path d="M331.609 173.373C337.559 186.722 342.536 231.608 345.464 283.055C348.393 334.502 353.1 533.479 353.1 533.479H302.748C303.724 516.537 303.008 398.377 299.389 387.362C289.591 357.543 278.155 356.72 265.788 346.63C253.42 336.539 303.137 354.148 299.389 300.696C307.045 268.449 286.259 245.788 280.923 233.859C272.152 214.252 296.208 205.939 296.208 192.538C296.208 177.127 301.925 157.058 265.788 152.619C313.372 154.422 327.644 164.478 331.609 173.373Z" fill="black" fill-opacity="0.05"/>
<path d="M349.346 404.672C349.546 393.262 351.367 381.932 354.809 370.682C346.123 376.104 341.685 384.234 341.495 395.073C341.21 411.331 349.046 421.787 349.346 404.672Z" fill="#885BDF"/>
<path d="M305.046 226.68C297.143 234.549 302.413 248.824 295.843 242.281C289.272 235.739 289.262 225.142 295.819 218.612C302.377 212.082 313.019 212.093 319.59 218.636C326.161 225.178 312.948 218.811 305.046 226.68Z" fill="#7A52C7"/>
<path d="M226.836 237.552C234.739 229.684 229.469 215.409 236.039 221.951C242.61 228.494 242.62 239.091 236.063 245.62C229.505 252.15 218.863 252.139 212.292 245.597C205.721 239.054 218.934 245.421 226.836 237.552Z" fill="#976AEB"/>
<path d="M265.708 262.254C261.924 262.254 252.464 256.831 252.464 250.695C252.464 244.56 259.438 243.739 265.708 243.739C271.977 243.739 278.952 244.56 278.952 250.695C278.952 256.831 269.492 262.254 265.708 262.254ZM222.192 243.739C215.922 243.739 210.84 238.766 210.84 232.63C210.84 226.495 215.922 221.521 222.192 221.521C228.461 221.521 233.544 226.495 233.544 232.63C233.544 238.766 228.461 243.739 222.192 243.739ZM309.224 243.739C302.954 243.739 297.872 238.766 297.872 232.63C297.872 226.495 302.954 221.521 309.224 221.521C315.494 221.521 320.576 226.495 320.576 232.63C320.576 238.766 315.494 243.739 309.224 243.739Z" fill="black"/>
<path d="M261.455 251.222C258.867 251.222 256.768 250.374 256.768 249.329C256.768 248.283 258.867 247.435 261.455 247.435C264.044 247.435 266.143 248.283 266.143 249.329C266.143 250.374 264.044 251.222 261.455 251.222ZM215.904 229.45C215.904 227.905 217.182 226.652 218.758 226.652C220.335 226.652 221.613 227.905 221.613 229.45C221.613 230.995 220.335 232.248 218.758 232.248C217.182 232.248 215.904 230.995 215.904 229.45ZM302.147 229.45C302.147 227.905 303.425 226.652 305.001 226.652C306.578 226.652 307.856 227.905 307.856 229.45C307.856 230.995 306.578 232.248 305.001 232.248C303.425 232.248 302.147 230.995 302.147 229.45Z" fill="white" fill-opacity="0.3"/>
<path d="M204.801 198.7L202.64 198.221L209.073 196.693C212.474 195.733 217.791 194.303 223.714 192.971C225.528 192.562 227.291 192.199 228.963 191.877L227.932 190.794H234.614L231.823 189.015C237.452 189.015 240.69 189.015 241.539 189.015C242.467 189.015 242.811 189.464 242.913 190.068C242.95 190.144 242.968 190.232 242.963 190.329L242.948 190.63C242.947 190.684 242.945 190.739 242.943 190.794C242.942 190.813 242.94 190.831 242.937 190.85L242.274 203.883C242.257 204.211 241.974 204.48 241.642 204.481C241.642 204.481 234.762 204.469 224.974 204.904C215.187 205.338 207.198 205.733 207.198 205.733C206.865 205.749 206.53 205.501 206.448 205.178L204.801 198.7ZM315.028 205.375L317.309 206.828C312.158 205.975 307.965 205.319 304.729 204.862C304.176 204.835 303.616 204.808 303.051 204.78C292.807 204.285 285.581 204.249 285.581 204.249C285.249 204.246 284.963 203.981 284.942 203.641L284.142 190.627C284.023 189.765 283.753 188.289 283.33 186.199L292.181 190.859C292.197 190.861 292.214 190.864 292.231 190.866L291.394 189.12L298.019 191.81C298.02 191.821 298.02 191.832 298.021 191.843C299.997 192.204 302.106 192.62 304.286 193.093C314.919 195.402 323.718 197.986 323.718 197.986C324.038 198.078 324.227 198.414 324.142 198.736L322.44 205.167C322.354 205.489 322.015 205.736 321.687 205.719C321.687 205.719 319.092 205.582 315.028 205.375ZM256.997 323.432C255.94 323.432 255.083 322.582 255.083 321.534C255.083 320.486 255.94 319.636 256.997 319.636H274.001C275.058 319.636 275.915 320.486 275.915 321.534C275.915 322.582 275.058 323.432 274.001 323.432H256.997Z" fill="#6633BC"/>
<path d="M264.483 309.026C299.669 309.026 328.193 297.178 328.193 282.298C328.193 267.418 299.669 277.797 264.483 277.797C229.297 277.797 200.773 267.418 200.773 282.298C200.773 297.178 229.297 309.026 264.483 309.026Z" fill="#8F2E2E"/>
<path d="M219.281 274.275C222.954 274.275 229.382 275.122 229.382 275.122C228.464 278.087 226.627 283.71 224.332 283.71C222.036 283.71 220.2 277.663 219.281 274.275ZM311.109 274.275C310.19 277.663 308.354 284.204 306.058 284.204C303.762 284.204 301.926 278.087 301.008 275.122C301.008 275.122 307.436 274.275 311.109 274.275Z" fill="white"/>
<path d="M266.619 281.367C288.831 281.367 306.838 285.818 306.838 294.049C306.838 305.328 288.831 307.607 266.619 307.607C244.406 307.607 226.4 307.401 226.4 294.049C226.4 285.818 244.406 281.367 266.619 281.367Z" fill="#7F2828"/>
<path d="M245.619 282.769C253.351 281.849 262.73 283.221 264.051 287.318C265.372 291.415 262.289 292.67 262.319 295.466C262.349 298.261 264.219 299.804 266.254 299.804C268.225 299.804 270.096 298.261 270.126 295.466C270.156 292.67 267.072 291.415 268.393 287.318C269.715 283.221 281.195 281.809 287.618 282.769L283.634 279.947H248.719L245.619 282.769Z" fill="#8F2E2E"/>
<path d="M289.753 306.63C289.758 306.1 286.851 303.899 277.782 302.225C271.425 301.053 268.351 303.793 267.029 303.793C265.708 303.793 262.373 301.053 256.016 302.225C246.947 303.899 243.484 306.66 243.484 306.63C261.137 308.305 271.021 309.387 289.753 306.63Z" fill="#AE3939"/>
<path d="M310.397 274.275C309.803 276.763 308.616 281.565 307.131 281.565C305.647 281.565 304.46 277.073 303.866 274.897C303.866 274.897 308.022 274.275 310.397 274.275ZM226.134 274.74C228.469 274.923 229.4 275.16 229.4 275.16C228.806 277.337 226.654 283.495 225.897 283.495C225.14 283.495 226.728 277.227 226.134 274.74Z" fill="black" fill-opacity="0.05"/>
</g>
<path fill-rule="evenodd" clip-rule="evenodd" d="M341.42 382.27C338.782 386.037 338.406 388.298 338.029 391.689C337.652 395.079 343.304 406.006 343.304 406.006L345.941 402.238C412.954 304.907 428.041 277.826 435.131 262.851C445.767 240.389 426.206 90.3126 424.268 71.5227C422.331 52.7329 420.325 46.1709 408.184 41.1387C396.043 36.1065 377.719 53.784 367.62 70.2534C357.522 86.7227 385.58 112.89 392.98 137.723C397.913 154.278 407.35 191.823 421.291 250.36C421.291 250.36 344.057 378.502 341.42 382.27Z" fill="#8354DB"/>
<g filter="url(#filter0_d)">
<rect width="75.1708" height="75.1708" rx="12" transform="matrix(-0.995887 -0.090607 -0.090607 0.995887 366.513 43.3672)" fill="white"/>
</g>
<g clip-path="url(#clip0)">
<path fill-rule="evenodd" clip-rule="evenodd" d="M317.88 55.3589L319.42 55.4861L336.855 56.9258L338.394 57.0529L338.969 58.487L342.033 66.1303L351.39 66.9029L353.882 67.1087L353.676 69.6002L351.157 100.111L350.951 102.603L348.459 102.397L300.513 98.4381L298.022 98.2323L298.228 95.7408L300.747 65.2297L300.953 62.7381L303.444 62.9439L312.801 63.7165L317.077 56.6794L317.88 55.3589ZM320.548 60.5963L316.272 67.6334L315.469 68.9538L313.93 68.8267L305.524 68.1326L303.416 93.6608L346.379 97.2083L348.487 71.6802L340.082 70.9862L338.542 70.859L337.967 69.4249L334.903 61.7816L320.548 60.5963ZM312.743 79.3856C313.354 71.9914 319.843 66.4922 327.237 67.1028C334.632 67.7133 340.131 74.2025 339.52 81.5966C338.91 88.9908 332.42 94.49 325.026 93.8795C317.632 93.2689 312.133 86.7798 312.743 79.3856ZM326.826 72.0858C322.184 71.7025 318.11 75.1549 317.726 79.7971C317.343 84.4392 320.796 88.5131 325.438 88.8964C330.08 89.2798 334.154 85.8273 334.537 81.1852C334.92 76.543 331.468 72.4691 326.826 72.0858Z" fill="#F4AD68"/>
</g>
<g filter="url(#filter1_d)">
<path fill-rule="evenodd" clip-rule="evenodd" d="M332.737 51.9993C340.303 75.6383 364.527 92.2367 378.696 99.9916C392.864 107.747 405.422 118.959 415.086 98.2143C435.414 54.5795 420.57 44.799 390.039 22.9499C373.613 11.1941 362.126 20.768 350.615 29.2323C340.731 36.4995 329.242 41.0791 332.737 51.9993Z" fill="#9060EB"/>
</g>
<defs>
<filter id="filter0_d" x="280.84" y="34.5566" width="89.6726" height="89.6726" filterUnits="userSpaceOnUse" color-interpolation-filters="sRGB">
<feFlood flood-opacity="0" result="BackgroundImageFix"/>
<feColorMatrix in="SourceAlpha" type="matrix" values="0 0 0 0 0 0 0 0 0 0 0 0 0 0 0 0 0 0 127 0"/>
<feOffset dy="2"/>
<feGaussianBlur stdDeviation="2"/>
<feColorMatrix type="matrix" values="0 0 0 0 0 0 0 0 0 0 0 0 0 0 0 0 0 0 0.12 0"/>
<feBlend mode="normal" in2="BackgroundImageFix" result="effect1_dropShadow"/>
<feBlend mode="normal" in="SourceGraphic" in2="effect1_dropShadow" result="shape"/>
</filter>
<filter id="filter1_d" x="318.555" y="7.7168" width="118.599" height="112.085" filterUnits="userSpaceOnUse" color-interpolation-filters="sRGB">
<feFlood flood-opacity="0" result="BackgroundImageFix"/>
<feColorMatrix in="SourceAlpha" type="matrix" values="0 0 0 0 0 0 0 0 0 0 0 0 0 0 0 0 0 0 127 0"/>
<feOffset dy="4"/>
<feGaussianBlur stdDeviation="1"/>
<feColorMatrix type="matrix" values="0 0 0 0 0 0 0 0 0 0 0 0 0 0 0 0 0 0 0.12 0"/>
<feBlend mode="normal" in2="BackgroundImageFix" result="effect1_dropShadow"/>
<feBlend mode="normal" in="SourceGraphic" in2="effect1_dropShadow" result="shape"/>
</filter>
<clipPath id="clip0">
<rect width="52.4828" height="52.4828" fill="white" transform="translate(302.319 50) rotate(4.72037)"/>
</clipPath>
</defs>
</svg>
