<svg width="538" height="543" viewBox="0 0 538 543" fill="none" xmlns="http://www.w3.org/2000/svg">
<g style="mix-blend-mode:multiply">
<circle cx="148.5" cy="107.5" r="100.5" fill="#F9D36E"/>
</g>
<g style="mix-blend-mode:multiply">
<circle cx="453" cy="458" r="85" fill="#9BFAD8"/>
</g>
<g style="mix-blend-mode:multiply">
<circle cx="47.5" cy="176.5" r="47.5" fill="#6AE4FB"/>
</g>
<g style="mix-blend-mode:multiply">
<circle cx="250.548" cy="353.143" r="159.858" stroke="#7630EA" stroke-width="48"/>
</g>
<mask id="mask0" mask-type="alpha" maskUnits="userSpaceOnUse" x="102" y="88" width="297" height="414">
<path d="M398.99 353.519C398.99 435.501 332.53 501.961 250.548 501.961C168.565 501.961 102.105 435.501 102.105 353.519C102.105 313.984 102.105 88.6582 102.105 88.6582H398.99C398.99 88.6582 398.99 271.536 398.99 353.519Z" fill="#C4C4C4"/>
</mask>
<g mask="url(#mask0)">
<path d="M340.528 141.127C350.771 149.378 356.612 163.188 347.478 174.409C338.344 185.63 317.625 192.358 306.27 183.211C294.915 174.063 297.223 152.504 306.357 141.283C315.491 130.063 330.284 132.875 340.528 141.127Z" fill="#885BDF"/>
<path d="M160.172 175.317C151.023 164.062 156.815 150.255 167.018 142.025C177.221 133.794 191.982 131.02 201.132 142.276C204.516 146.438 206.971 152.014 208.151 157.849C243.854 146.153 311.47 150.959 320.945 172.269C327.678 187.41 331.993 235.866 334.695 284.016C335.807 303.825 336.646 337.829 337.267 355.194C338.439 387.958 342.006 531.725 342.006 531.725H166.133C166.133 531.725 169.824 387.958 170.993 355.194C171.612 337.829 172.449 303.825 173.558 284.016C175.621 247.195 178.628 210.195 182.94 188.051C174.181 186.601 165.337 181.67 160.172 175.317Z" fill="#9060EB"/>
<path d="M316.615 429.939C314.142 395.05 286.969 379.236 254.171 379.236C221.463 379.236 194.878 395.253 192.278 429.939L188.383 533.231H321.889L316.615 429.939Z" fill="#17EBA0"/>
<path d="M249.249 386.066C242.506 383.334 237.096 379.456 233.019 374.432C238.753 376.768 247.323 378.487 258.729 379.586C275.838 381.236 273.296 395.164 249.249 386.066Z" fill="#17EBA0"/>
<path d="M320.609 172.373C326.559 185.722 331.536 230.608 334.464 282.055C337.393 333.502 342.1 532.479 342.1 532.479H291.748C292.724 515.537 292.008 397.377 288.389 386.362C278.591 356.543 267.155 355.72 254.788 345.63C242.42 335.539 292.137 353.148 288.389 299.696C296.045 267.449 275.259 244.788 269.923 232.859C261.152 213.252 285.208 204.939 285.208 191.538C285.208 176.127 290.925 156.058 254.788 151.619C302.372 153.422 316.644 163.478 320.609 172.373Z" fill="black" fill-opacity="0.05"/>
<path d="M338.346 403.672C338.546 392.262 340.367 380.932 343.809 369.682C335.123 375.104 330.685 383.234 330.495 394.073C330.21 410.331 338.046 420.787 338.346 403.672Z" fill="#885BDF"/>
<path d="M294.046 225.68C286.143 233.549 291.413 247.824 284.843 241.281C278.272 234.739 278.262 224.142 284.819 217.612C291.377 211.082 302.019 211.093 308.59 217.636C315.161 224.178 301.948 217.811 294.046 225.68Z" fill="#7A52C7"/>
<path d="M215.836 236.552C223.739 228.684 218.469 214.409 225.039 220.951C231.61 227.494 231.62 238.091 225.063 244.62C218.505 251.15 207.863 251.139 201.292 244.597C194.721 238.054 207.934 244.421 215.836 236.552Z" fill="#976AEB"/>
<path d="M254.708 261.254C250.924 261.254 241.464 255.831 241.464 249.695C241.464 243.56 248.438 242.739 254.708 242.739C260.977 242.739 267.952 243.56 267.952 249.695C267.952 255.831 258.492 261.254 254.708 261.254ZM211.192 242.739C204.922 242.739 199.84 237.766 199.84 231.63C199.84 225.495 204.922 220.521 211.192 220.521C217.461 220.521 222.544 225.495 222.544 231.63C222.544 237.766 217.461 242.739 211.192 242.739ZM298.224 242.739C291.954 242.739 286.872 237.766 286.872 231.63C286.872 225.495 291.954 220.521 298.224 220.521C304.494 220.521 309.576 225.495 309.576 231.63C309.576 237.766 304.494 242.739 298.224 242.739Z" fill="black"/>
<path d="M250.455 250.222C247.867 250.222 245.768 249.374 245.768 248.329C245.768 247.283 247.867 246.435 250.455 246.435C253.044 246.435 255.143 247.283 255.143 248.329C255.143 249.374 253.044 250.222 250.455 250.222ZM204.904 228.45C204.904 226.905 206.182 225.652 207.758 225.652C209.335 225.652 210.613 226.905 210.613 228.45C210.613 229.995 209.335 231.248 207.758 231.248C206.182 231.248 204.904 229.995 204.904 228.45ZM291.147 228.45C291.147 226.905 292.425 225.652 294.001 225.652C295.578 225.652 296.856 226.905 296.856 228.45C296.856 229.995 295.578 231.248 294.001 231.248C292.425 231.248 291.147 229.995 291.147 228.45Z" fill="white" fill-opacity="0.3"/>
<path d="M193.801 197.7L191.64 197.221L198.073 195.693C201.474 194.733 206.791 193.303 212.714 191.971C214.528 191.562 216.291 191.199 217.963 190.877L216.932 189.794H223.614L220.823 188.015C226.452 188.015 229.69 188.015 230.539 188.015C231.467 188.015 231.811 188.464 231.913 189.068C231.95 189.144 231.968 189.232 231.963 189.329L231.948 189.63C231.947 189.684 231.945 189.739 231.943 189.794C231.942 189.813 231.94 189.831 231.937 189.85L231.274 202.883C231.257 203.211 230.974 203.48 230.642 203.481C230.642 203.481 223.762 203.469 213.974 203.904C204.187 204.338 196.198 204.733 196.198 204.733C195.865 204.749 195.53 204.501 195.448 204.178L193.801 197.7ZM304.028 204.375L306.309 205.828C301.158 204.975 296.965 204.319 293.729 203.862C293.176 203.835 292.616 203.808 292.051 203.78C281.807 203.285 274.581 203.249 274.581 203.249C274.249 203.246 273.963 202.981 273.942 202.641L273.142 189.627C273.023 188.765 272.753 187.289 272.33 185.199L281.181 189.859C281.197 189.861 281.214 189.864 281.231 189.866L280.394 188.12L287.019 190.81C287.02 190.821 287.02 190.832 287.021 190.843C288.997 191.204 291.106 191.62 293.286 192.093C303.919 194.402 312.718 196.986 312.718 196.986C313.038 197.078 313.227 197.414 313.142 197.736L311.44 204.167C311.354 204.489 311.015 204.736 310.687 204.719C310.687 204.719 308.092 204.582 304.028 204.375ZM245.997 322.432C244.94 322.432 244.083 321.582 244.083 320.534C244.083 319.486 244.94 318.636 245.997 318.636H263.001C264.058 318.636 264.915 319.486 264.915 320.534C264.915 321.582 264.058 322.432 263.001 322.432H245.997Z" fill="#6633BC"/>
<path d="M253.483 308.026C288.669 308.026 317.193 296.178 317.193 281.298C317.193 266.418 288.669 276.797 253.483 276.797C218.297 276.797 189.773 266.418 189.773 281.298C189.773 296.178 218.297 308.026 253.483 308.026Z" fill="#8F2E2E"/>
<path d="M208.281 273.275C211.954 273.275 218.382 274.122 218.382 274.122C217.464 277.087 215.627 282.71 213.332 282.71C211.036 282.71 209.2 276.663 208.281 273.275ZM300.109 273.275C299.19 276.663 297.354 283.204 295.058 283.204C292.762 283.204 290.926 277.087 290.008 274.122C290.008 274.122 296.436 273.275 300.109 273.275Z" fill="white"/>
<path d="M255.619 280.367C277.831 280.367 295.838 284.818 295.838 293.049C295.838 304.328 277.831 306.607 255.619 306.607C233.406 306.607 215.4 306.401 215.4 293.049C215.4 284.818 233.406 280.367 255.619 280.367Z" fill="#7F2828"/>
<path d="M234.619 281.769C242.351 280.849 251.73 282.221 253.051 286.318C254.372 290.415 251.289 291.67 251.319 294.466C251.349 297.261 253.219 298.804 255.254 298.804C257.225 298.804 259.096 297.261 259.126 294.466C259.156 291.67 256.072 290.415 257.393 286.318C258.715 282.221 270.195 280.809 276.618 281.769L272.634 278.947H237.719L234.619 281.769Z" fill="#8F2E2E"/>
<path d="M278.753 305.63C278.758 305.1 275.851 302.899 266.782 301.225C260.425 300.053 257.351 302.793 256.029 302.793C254.708 302.793 251.373 300.053 245.016 301.225C235.947 302.899 232.484 305.66 232.484 305.63C250.137 307.305 260.021 308.387 278.753 305.63Z" fill="#AE3939"/>
<path d="M299.397 273.275C298.803 275.763 297.616 280.565 296.131 280.565C294.647 280.565 293.46 276.073 292.866 273.897C292.866 273.897 297.022 273.275 299.397 273.275ZM215.134 273.74C217.469 273.923 218.4 274.16 218.4 274.16C217.806 276.337 215.654 282.495 214.897 282.495C214.14 282.495 215.728 276.227 215.134 273.74Z" fill="black" fill-opacity="0.05"/>
</g>
<path fill-rule="evenodd" clip-rule="evenodd" d="M180.094 380.27C182.731 384.037 183.108 386.298 183.485 389.689C183.862 393.079 178.21 404.006 178.21 404.006L175.573 400.238C108.56 302.907 93.4734 275.826 86.3828 260.851C75.7469 238.389 95.3083 88.3126 97.2456 69.5227C99.1829 50.7329 101.189 44.1709 113.33 39.1387C125.471 34.1065 143.795 51.784 153.893 68.2534C163.992 84.7227 135.934 110.89 128.534 135.723C123.601 152.278 114.164 189.823 100.223 248.36C100.223 248.36 177.457 376.502 180.094 380.27Z" fill="#8354DB"/>
<g filter="url(#filter0_d)">
<rect x="155.001" y="41.3672" width="75.1708" height="75.1708" rx="12" transform="rotate(-5.19853 155.001 41.3672)" fill="white"/>
</g>
<path fill-rule="evenodd" clip-rule="evenodd" d="M183.595 63.8317C183.43 61.3457 184.141 59.9917 185.152 59.1205C186.36 58.0804 188.425 57.3551 191.524 57.0731L195.91 56.6739C199.01 56.3918 201.171 56.7324 202.547 57.5374C203.744 58.2381 204.716 59.5101 204.96 62.1862L205.159 64.3796L205.386 66.8693L207.875 66.6427C212.557 66.2167 216.698 69.6666 217.124 74.3485C217.55 79.0303 214.1 83.1711 209.418 83.5972L209.872 88.5766C217.304 87.9003 222.78 81.3272 222.104 73.8953C221.505 67.314 216.282 62.2662 209.933 61.6666C209.565 57.796 207.947 54.9042 205.072 53.2221C202.36 51.6347 198.938 51.3777 195.457 51.6945L191.071 52.0937C187.589 52.4105 184.271 53.281 181.889 55.3319C179.366 57.5053 178.296 60.6416 178.633 64.515C172.497 66.2508 168.271 72.1586 168.87 78.7399C169.546 86.1718 176.119 91.6482 183.551 90.9719L183.098 85.9924C178.416 86.4185 174.275 82.9686 173.849 78.2867C173.423 73.6049 176.873 69.4641 181.555 69.038L194.715 67.8403L194.262 62.8609L183.595 63.8317ZM199.067 82.5543L203.458 86.2133L206.659 82.3718L197.004 74.3277L195.066 72.7135L193.469 74.6648L185.577 84.3059L189.446 87.473L193.085 83.0276L194.495 98.5246L200.471 97.9808L199.067 82.5543Z" fill="#FFD8D8"/>
<g filter="url(#filter1_d)">
<path fill-rule="evenodd" clip-rule="evenodd" d="M188.777 49.9993C181.211 73.6383 156.987 90.2367 142.818 97.9916C128.65 105.747 116.093 116.959 106.428 96.2143C86.0999 52.5795 100.944 42.799 131.475 20.9499C147.901 9.1941 159.388 18.768 170.9 27.2323C180.783 34.4995 192.272 39.0791 188.777 49.9993Z" fill="#9060EB"/>
</g>
<defs>
<filter id="filter0_d" x="151.001" y="32.5566" width="89.6726" height="89.6726" filterUnits="userSpaceOnUse" color-interpolation-filters="sRGB">
<feFlood flood-opacity="0" result="BackgroundImageFix"/>
<feColorMatrix in="SourceAlpha" type="matrix" values="0 0 0 0 0 0 0 0 0 0 0 0 0 0 0 0 0 0 127 0"/>
<feOffset dy="2"/>
<feGaussianBlur stdDeviation="2"/>
<feColorMatrix type="matrix" values="0 0 0 0 0 0 0 0 0 0 0 0 0 0 0 0 0 0 0.12 0"/>
<feBlend mode="normal" in2="BackgroundImageFix" result="effect1_dropShadow"/>
<feBlend mode="normal" in="SourceGraphic" in2="effect1_dropShadow" result="shape"/>
</filter>
<filter id="filter1_d" x="84.3594" y="5.7168" width="118.599" height="112.085" filterUnits="userSpaceOnUse" color-interpolation-filters="sRGB">
<feFlood flood-opacity="0" result="BackgroundImageFix"/>
<feColorMatrix in="SourceAlpha" type="matrix" values="0 0 0 0 0 0 0 0 0 0 0 0 0 0 0 0 0 0 127 0"/>
<feOffset dy="4"/>
<feGaussianBlur stdDeviation="1"/>
<feColorMatrix type="matrix" values="0 0 0 0 0 0 0 0 0 0 0 0 0 0 0 0 0 0 0.12 0"/>
<feBlend mode="normal" in2="BackgroundImageFix" result="effect1_dropShadow"/>
<feBlend mode="normal" in="SourceGraphic" in2="effect1_dropShadow" result="shape"/>
</filter>
</defs>
</svg>
