<svg width="777" height="757" viewBox="0 0 777 757" fill="none" xmlns="http://www.w3.org/2000/svg">
<path fill-rule="evenodd" clip-rule="evenodd" d="M460.706 546.723L469 559.681C368.813 618.788 311.125 651.304 295.938 657.227C273.156 666.112 127.332 636.235 109.038 632.999C90.7447 629.762 84.4497 627.323 80.3691 615.011C76.2886 602.699 94.9183 585.904 111.784 577.125C128.649 568.345 152.339 597.826 176.174 606.869C192.065 612.898 228.227 624.846 284.661 642.714L460.706 546.723Z" fill="#8354DB"/>
<path fill-rule="evenodd" clip-rule="evenodd" d="M533.189 224.933C519.215 206.645 517.062 191.21 526.73 178.631C541.232 159.761 586.006 166.843 591.493 197.488C595.151 217.918 584.618 233.396 559.895 243.923L533.189 224.933Z" fill="#9060EB"/>
<path fill-rule="evenodd" clip-rule="evenodd" d="M381.885 264.462L390.6 296.11C372.166 315.799 353.946 320.429 335.941 309.999C308.934 294.354 317.666 249.757 340.449 242.548C355.638 237.743 369.45 245.047 381.885 264.462Z" fill="#8156D3"/>
<path fill-rule="evenodd" clip-rule="evenodd" d="M470.622 662.798C472.735 650.817 459.514 586.377 437.613 515.951C429.962 491.344 376.745 339.188 373.467 307.728C370.189 276.267 365.778 272.602 392.699 253.763C430.973 226.978 490.632 215.432 518.155 213.223C556.362 210.157 579.204 257.512 599.458 307.847C603.986 319.099 638.435 435.775 640.385 449.216C654.611 547.308 680.4 629.143 680.4 699.767C680.4 722.505 679.711 741.116 678.333 755.599H442.713C459.496 713.85 466.998 683.336 470.622 662.798Z" fill="#9060EB"/>
<path fill-rule="evenodd" clip-rule="evenodd" d="M507.706 700.846C521.598 647.782 479.791 607.891 545.333 604.365C610.875 600.838 638.176 653.983 639.567 704.413C640.203 727.482 639.567 739.985 637.295 755.598H492.8C496.563 742.68 501.531 724.43 507.706 700.846Z" fill="#6CF5AA"/>
<path fill-rule="evenodd" clip-rule="evenodd" d="M456.434 228.502C401.29 253.338 385.961 279.201 410.447 306.093C447.757 347.068 446.022 356.658 436.477 374.095C426.933 391.531 421.727 421.172 443.419 424.66C460.772 446.455 511.964 507.482 479.861 532.764C447.757 558.047 508.493 580.714 534.523 580.714C540.308 615.005 543.2 637.672 543.2 648.715C543.2 692.486 532.788 714.281 520.641 757H443.419C457.1 719.512 471.184 672.615 471.184 658.485C471.184 634.075 422.595 465.635 410.447 430.762C398.3 395.89 361.858 292.144 373.138 273.836C386.426 252.268 414.192 237.156 456.434 228.502Z" fill="black" fill-opacity="0.1"/>
<path fill-rule="evenodd" clip-rule="evenodd" d="M519.4 476.63L522.2 479.434L519.4 476.63Z" stroke="#979797" stroke-linecap="square"/>
<path fill-rule="evenodd" clip-rule="evenodd" d="M438.891 428.892C441.29 415.289 453.18 400.852 490.759 393.327C528.338 385.802 562.79 387.616 568.843 393.066C574.897 398.517 589.458 435.273 590.713 467.93C591.969 500.587 579.266 522.894 571.914 534.747C564.563 546.601 548.707 556.956 539.604 558.857C530.5 560.759 512.791 556.761 498.723 551.65C484.654 546.54 478.324 538.411 476.522 533.71C474.721 529.01 481.972 512.755 479.568 496.552C477.165 480.348 451.4 457.397 446.047 452.947C440.694 448.496 436.492 442.496 438.891 428.892Z" fill="#8F2E2E"/>
<path fill-rule="evenodd" clip-rule="evenodd" d="M639.8 517.32C694.905 373.52 724.069 292.439 727.292 274.078C730.515 255.717 712.356 185.108 672.814 62.2509L709.219 16.8223C744.28 164.854 760.151 249.896 756.832 271.947C765.878 256.02 772.601 247.394 777 246.07C754.252 304.446 712.398 400.458 651.436 534.106L639.8 517.32Z" fill="#9060EB"/>
<path fill-rule="evenodd" clip-rule="evenodd" d="M484.4 283.718C486.116 292.367 488.977 303.028 492.981 315.702C498.988 334.712 502.342 339.898 522.078 350.27C541.815 360.641 573.644 340.762 547.043 340.762C528.29 340.762 515.072 310.263 527.306 302.733C522.078 286.311 535.887 283.718 547.043 279.397C547.043 275.939 526.162 277.38 484.4 283.718Z" fill="#8156D3"/>
<path fill-rule="evenodd" clip-rule="evenodd" d="M708.139 16.5408C710.663 30.7165 694.073 95.5501 693.24 100.229C692.407 104.908 666.724 118.922 656.276 113.869C645.827 108.815 636.121 95.6208 631.862 91.2057C627.604 86.7907 623.86 -0.590336 645.675 0.00300795C667.49 0.596352 705.615 2.3652 708.139 16.5408Z" fill="#9060EB"/>
<path d="M511 574.759C524.539 581.536 535.739 582.17 544.6 576.661" stroke="#6D49B2" stroke-width="5" stroke-linecap="round" stroke-linejoin="round"/>
<path fill-rule="evenodd" clip-rule="evenodd" d="M412.432 364.053C405.377 356.387 405.791 344.376 413.356 337.227C420.922 330.078 426.312 330.74 433.367 338.406C440.422 346.073 446.47 357.841 438.904 364.99C431.339 372.139 419.487 371.72 412.432 364.053Z" fill="#333333"/>
<path fill-rule="evenodd" clip-rule="evenodd" d="M418.662 344.113C419.058 341.828 421.232 340.307 423.517 340.717C425.802 341.127 427.334 343.313 426.938 345.598C426.542 347.884 424.368 349.405 422.083 348.995C419.798 348.585 418.266 346.399 418.662 344.113Z" fill="#9B9B9B"/>
<path fill-rule="evenodd" clip-rule="evenodd" d="M524.121 337.182C514.823 332.438 511.126 321.044 515.864 311.734C520.601 302.423 531.98 298.721 541.279 303.465C550.577 308.209 554.274 319.603 549.536 328.913C544.799 338.224 533.42 341.926 524.121 337.182Z" fill="#333333"/>
<path fill-rule="evenodd" clip-rule="evenodd" d="M442.4 423.177C448.61 431.71 454.63 435.976 460.461 435.976C468.314 435.976 457.507 416.141 461.353 406.537C454.445 408.809 448.127 414.356 442.4 423.177Z" fill="white"/>
<path fill-rule="evenodd" clip-rule="evenodd" d="M551.599 389.494C551.664 402.398 549.359 410.669 544.683 414.308C538.385 419.209 534.027 394.58 525 388.836C536.798 387.964 545.664 388.183 551.599 389.494Z" fill="white"/>
<path fill-rule="evenodd" clip-rule="evenodd" d="M462.324 405.012C462.55 403.704 473.95 398.949 488.764 395.315C503.72 391.647 523.113 388.392 525.902 390.257C531.453 393.969 532.267 399.171 527.367 402.27C522.466 405.37 514.601 404.489 498.101 407.843C481.601 411.197 468.229 416.922 464.798 416.304C461.367 415.686 461.87 407.642 462.324 405.012Z" fill="white"/>
<path fill-rule="evenodd" clip-rule="evenodd" d="M554.994 389.715C579.538 390.302 572.402 407.512 568.753 402.972C565.105 398.431 559.894 401.61 555.777 399.386C551.66 397.162 552.753 391.758 554.994 389.715Z" fill="white" fill-opacity="0.9"/>
<path fill-rule="evenodd" clip-rule="evenodd" d="M492.224 353.705C497.507 358.225 491.588 378.266 481.654 380.979C471.72 383.692 454.575 368.727 462.738 361.113C470.901 353.498 486.942 349.185 492.224 353.705Z" fill="#333333"/>
<path fill-rule="evenodd" clip-rule="evenodd" d="M574.772 608.5C582.551 610.569 580.93 613.34 569.906 616.815C564.139 613.199 559.239 609.516 555.207 605.766C551.175 602.017 549.039 599.158 548.8 597.189C558.335 602.661 566.992 606.431 574.772 608.5Z" fill="#6CF5AA"/>
<path fill-rule="evenodd" clip-rule="evenodd" d="M492.131 523.814C506.371 505.172 498.289 499.551 490.522 485.779C482.756 472.008 484.926 466.323 494.418 463.74C503.911 461.158 524.059 462.703 521.47 474.753C518.882 486.803 524.059 486.803 526.648 486.803C529.237 486.803 536.14 485.082 532.689 474.753C529.237 464.424 538.678 453.841 549.554 454.21C570.574 454.922 578.776 464.441 580.75 471.058C583.081 478.874 585.115 481.967 582.739 491.107C576.698 514.346 570.658 541.889 551.673 547.914C532.689 553.939 477.89 542.455 492.131 523.814Z" fill="#772424"/>
<path fill-rule="evenodd" clip-rule="evenodd" d="M550.2 281.731C535.18 284.664 522.779 287.617 512.996 290.59C503.213 293.563 495.333 295.764 489.357 297.192L476 277.77C480.489 276.502 484.445 275.959 487.867 276.142C489.056 276.205 485.216 272.864 488.046 272.656C492.96 272.296 505.678 272.699 510.398 271.721C521.581 269.403 532.485 268.655 543.11 269.479L550.2 281.731Z" fill="#6D49B2"/>
<path fill-rule="evenodd" clip-rule="evenodd" d="M422.8 318.546C407.794 323.525 397.402 323.712 391.624 319.108L384.038 307.954L388.224 308.714C381.163 296.174 380.309 292.76 385.662 298.472C393.691 307.04 405.623 297.863 411.175 305.77C414.877 311.041 418.752 315.3 422.8 318.546Z" fill="#6D49B2"/>
<path fill-rule="evenodd" clip-rule="evenodd" d="M552.792 523.668C546.497 539.265 522.047 541.097 508.56 529.09C500.94 522.306 507.543 516.82 516.142 511.215C524.129 506.008 509.715 497.646 486.491 504.119C463.267 510.591 447.448 505.177 455.911 502.267C463.099 499.796 472.683 485.193 497.403 486.528C501.787 486.765 506.745 487.106 512.383 487.566C549.815 490.62 558.522 509.471 552.792 523.668Z" fill="#AE3939" fill-opacity="0.7"/>
<path fill-rule="evenodd" clip-rule="evenodd" d="M475.316 488.566C454.833 488.566 430.96 493.142 420.925 504.593C410.889 516.043 394.298 542.449 425.29 544.965C440.533 546.203 454.439 550.937 464.069 536.775C473.698 522.613 480.905 507.563 488.548 504.081C501.119 498.355 521.585 496.424 532.65 495.94C540.71 495.587 538.174 489.863 491.436 487.861C486.769 487.661 484.947 489.368 481.348 489.62C477.749 489.871 478.781 488.566 475.316 488.566Z" fill="#AE3939"/>
<path fill-rule="evenodd" clip-rule="evenodd" d="M529.262 311.87C529.658 309.584 531.832 308.064 534.117 308.474C536.402 308.884 537.934 311.07 537.538 313.355C537.142 315.641 534.968 317.162 532.683 316.752C530.398 316.341 528.866 314.156 529.262 311.87Z" fill="#9B9B9B"/>
<path fill-rule="evenodd" clip-rule="evenodd" d="M476.007 360.68C475.852 359.691 478.229 358.396 481.318 357.786C484.407 357.176 487.037 357.483 487.193 358.471C487.348 359.459 484.971 360.755 481.882 361.365C478.793 361.974 476.163 361.668 476.007 360.68Z" fill="#9B9B9B"/>
<path fill-rule="evenodd" clip-rule="evenodd" d="M471.8 494.854C456.07 499.804 444.87 506.814 438.2 515.881L471.8 494.854Z" stroke="#8F2E2E" stroke-width="2" stroke-linecap="round"/>
<path fill-rule="evenodd" clip-rule="evenodd" d="M484.582 533.604C483.179 516.645 490.381 520.558 489.182 527.381C488.76 529.781 495.285 528.461 499.384 529.186C508.736 530.841 515.584 532.261 523.89 534.401C545.695 540.017 545.297 552.26 561.347 535.75C577.398 519.241 582.195 491.946 582.397 500.776C582.598 509.607 573.749 530.029 568.149 536.954C562.549 543.878 546.198 562.094 520.292 554.872C494.386 547.651 485.162 540.616 484.582 533.604Z" fill="white"/>
<path fill-rule="evenodd" clip-rule="evenodd" d="M48.9277 501.822C42.7613 491.229 29.3912 492.153 25.0535 491C6.55099 486.083 -0.982519 467.067 0.101735 453.028C1.18599 438.989 3.7735 436.095 8.18443 430.526C8.90145 429.621 10.7105 429.364 13.6116 429.755L32.1882 461.668C33.5413 463.992 36.4582 464.91 38.9147 463.784L48.4995 459.39C51.0737 458.21 52.2316 455.211 51.1103 452.627L36.4316 418.806C37.8977 416.17 39.2687 414.885 40.5446 414.951C50.8724 415.48 58.291 416.876 69.6926 424.959C81.8159 433.554 84.8828 452.278 79.4126 466.904C77.6963 471.493 69.8348 482.306 74.9332 493.511C80.0315 504.716 181.551 680.341 184.634 685.638C187.718 690.935 186.303 699.513 179.894 703.183C173.486 706.852 164.837 705.449 160.521 698.034C156.204 690.619 55.0941 512.416 48.9277 501.822ZM168.989 696.48C172.722 697.481 176.559 695.263 177.56 691.525C178.56 687.786 176.345 683.944 172.611 682.942C168.878 681.941 165.041 684.159 164.04 687.897C163.04 691.636 165.255 695.478 168.989 696.48Z" fill="#999999"/>
<path fill-rule="evenodd" clip-rule="evenodd" d="M112.193 533.403C136.551 547.62 147.656 576.551 151.941 592.923C156.225 609.296 164.934 625.026 138.388 628.886C82.5513 637.004 76.1883 619.385 61.1396 582.662C53.0427 562.903 67.5224 554.081 80.7537 544.924C92.1139 537.061 100.941 526.835 112.193 533.403Z" fill="#9060EB"/>
<path fill-rule="evenodd" clip-rule="evenodd" d="M635.181 499.059C635.181 482.984 639.979 467.564 649.575 452.798C649.575 487.243 651.269 514.226 654.656 533.745C658.043 553.264 645.624 548.097 617.4 518.244C629.254 521.529 635.181 515.134 635.181 499.059Z" fill="#9060EB"/>
</svg>
