<svg width="549" height="546" viewBox="0 0 549 546" fill="none" xmlns="http://www.w3.org/2000/svg">
<g style="mix-blend-mode:multiply">
<circle r="100.5" transform="matrix(-1 0 0 1 400.5 100.5)" fill="#FFD8D8"/>
</g>
<g style="mix-blend-mode:multiply">
<circle cx="72" cy="474" r="72" fill="#FDEF74"/>
</g>
<g style="mix-blend-mode:multiply">
<circle r="47.5" transform="matrix(-1 0 0 1 501.5 169.5)" fill="#6AE4FB"/>
</g>
<g style="mix-blend-mode:multiply">
<circle cx="261.548" cy="354.143" r="159.858" stroke="#7630EA" stroke-width="48"/>
</g>
<mask id="mask0" mask-type="alpha" maskUnits="userSpaceOnUse" x="113" y="89" width="297" height="414">
<path d="M409.99 354.52C409.99 436.502 343.53 502.962 261.548 502.962C179.565 502.962 113.105 436.502 113.105 354.52C113.105 314.985 113.105 89.6592 113.105 89.6592H409.99C409.99 89.6592 409.99 272.537 409.99 354.52Z" fill="#C4C4C4"/>
</mask>
<g mask="url(#mask0)">
<path d="M351.528 142.127C361.771 150.379 367.612 164.189 358.478 175.41C349.345 186.631 328.626 193.359 317.27 184.212C305.915 175.064 308.224 153.505 317.357 142.284C326.491 131.064 341.285 133.876 351.528 142.127Z" fill="#885BDF"/>
<path d="M171.173 176.318C162.023 165.063 167.816 151.256 178.019 143.026C188.222 134.795 202.983 132.021 212.132 143.277C215.516 147.439 217.972 153.015 219.151 158.85C254.855 147.154 322.47 151.96 331.946 173.27C338.678 188.411 342.994 236.867 345.696 285.017C346.808 304.826 347.646 338.83 348.267 356.195C349.439 388.959 353.007 532.726 353.007 532.726H177.133C177.133 532.726 180.824 388.959 181.993 356.195C182.613 338.83 183.449 304.826 184.559 285.017C186.622 248.196 189.629 211.196 193.94 189.052C185.181 187.602 176.337 182.671 171.173 176.318Z" fill="#9060EB"/>
<path d="M327.616 430.941C325.143 396.052 297.97 380.238 265.172 380.238C232.464 380.238 205.879 396.255 203.278 430.941L199.384 534.233H332.89L327.616 430.941Z" fill="#17EBA0"/>
<path d="M260.25 387.066C253.506 384.334 248.096 380.456 244.02 375.432C249.754 377.768 258.324 379.487 269.73 380.586C286.839 382.236 284.296 396.164 260.25 387.066Z" fill="#17EBA0"/>
<path d="M331.609 173.374C337.559 186.723 342.536 231.609 345.465 283.056C348.393 334.503 353.101 533.479 353.101 533.479H302.748C303.724 516.538 303.009 398.378 299.39 387.363C289.592 357.544 278.156 356.721 265.788 346.631C253.421 336.54 303.138 354.149 299.39 300.697C307.046 268.45 286.259 245.789 280.923 233.86C272.152 214.253 296.209 205.94 296.209 192.539C296.209 177.128 301.926 157.059 265.788 152.62C313.373 154.423 327.645 164.479 331.609 173.374Z" fill="black" fill-opacity="0.05"/>
<path d="M349.346 404.673C349.546 393.263 351.367 381.933 354.809 370.683C346.123 376.105 341.685 384.235 341.495 395.074C341.21 411.332 349.046 421.788 349.346 404.673Z" fill="#885BDF"/>
<path d="M305.046 226.68C297.144 234.549 302.414 248.824 295.843 242.281C289.273 235.739 289.262 225.142 295.82 218.612C302.377 212.082 313.02 212.093 319.591 218.636C326.161 225.178 312.949 218.811 305.046 226.68Z" fill="#7A52C7"/>
<path d="M226.837 237.554C234.739 229.685 229.469 215.411 236.04 221.953C242.61 228.496 242.621 239.093 236.063 245.622C229.506 252.152 218.863 252.141 212.292 245.599C205.722 239.056 218.934 245.423 226.837 237.554Z" fill="#976AEB"/>
<path d="M265.708 262.254C261.924 262.254 252.464 256.831 252.464 250.695C252.464 244.56 259.438 243.739 265.708 243.739C271.977 243.739 278.952 244.56 278.952 250.695C278.952 256.831 269.492 262.254 265.708 262.254ZM222.192 243.739C215.922 243.739 210.84 238.766 210.84 232.63C210.84 226.495 215.922 221.521 222.192 221.521C228.461 221.521 233.544 226.495 233.544 232.63C233.544 238.766 228.461 243.739 222.192 243.739ZM309.224 243.739C302.954 243.739 297.872 238.766 297.872 232.63C297.872 226.495 302.954 221.521 309.224 221.521C315.494 221.521 320.576 226.495 320.576 232.63C320.576 238.766 315.494 243.739 309.224 243.739Z" fill="black"/>
<path d="M261.456 251.223C258.868 251.223 256.769 250.375 256.769 249.33C256.769 248.284 258.868 247.436 261.456 247.436C264.045 247.436 266.143 248.284 266.143 249.33C266.143 250.375 264.045 251.223 261.456 251.223ZM215.904 229.451C215.904 227.906 217.182 226.653 218.759 226.653C220.336 226.653 221.614 227.906 221.614 229.451C221.614 230.996 220.336 232.249 218.759 232.249C217.182 232.249 215.904 230.996 215.904 229.451ZM302.147 229.451C302.147 227.906 303.425 226.653 305.002 226.653C306.579 226.653 307.857 227.906 307.857 229.451C307.857 230.996 306.579 232.249 305.002 232.249C303.425 232.249 302.147 230.996 302.147 229.451Z" fill="white" fill-opacity="0.3"/>
<path d="M204.801 198.701L202.641 198.222L209.073 196.694C212.474 195.734 217.791 194.304 223.714 192.972C225.528 192.563 227.291 192.2 228.963 191.878L227.932 190.795H234.614L231.824 189.016C237.452 189.016 240.69 189.016 241.539 189.016C242.467 189.016 242.811 189.465 242.913 190.069C242.95 190.145 242.969 190.233 242.964 190.33L242.948 190.631C242.947 190.685 242.946 190.74 242.943 190.795C242.942 190.814 242.94 190.832 242.937 190.851L242.274 203.884C242.257 204.212 241.974 204.481 241.642 204.482C241.642 204.482 234.762 204.47 224.975 204.905C215.187 205.339 207.198 205.734 207.198 205.734C206.865 205.75 206.531 205.502 206.449 205.179L204.801 198.701ZM315.028 205.376L317.309 206.829C312.159 205.976 307.965 205.32 304.729 204.863C304.176 204.836 303.617 204.809 303.051 204.781C292.807 204.286 285.581 204.25 285.581 204.25C285.249 204.247 284.964 203.982 284.943 203.642L284.142 190.628C284.024 189.766 283.753 188.29 283.33 186.2L292.181 190.86C292.198 190.862 292.214 190.865 292.231 190.867L291.394 189.121L298.02 191.811C298.02 191.822 298.021 191.833 298.021 191.844C299.997 192.205 302.107 192.621 304.286 193.094C314.919 195.403 323.719 197.986 323.719 197.986C324.038 198.079 324.228 198.415 324.142 198.737L322.44 205.168C322.355 205.49 322.015 205.737 321.687 205.72C321.687 205.72 319.093 205.583 315.028 205.376ZM256.997 323.433C255.94 323.433 255.084 322.583 255.084 321.535C255.084 320.487 255.94 319.637 256.997 319.637H274.001C275.058 319.637 275.915 320.487 275.915 321.535C275.915 322.583 275.058 323.433 274.001 323.433H256.997Z" fill="#6633BC"/>
<path d="M264.483 309.026C299.669 309.026 328.193 297.178 328.193 282.298C328.193 267.418 299.669 277.797 264.483 277.797C229.297 277.797 200.773 267.418 200.773 282.298C200.773 297.178 229.297 309.026 264.483 309.026Z" fill="#8F2E2E"/>
<path d="M219.281 274.275C222.954 274.275 229.382 275.122 229.382 275.122C228.464 278.087 226.627 283.71 224.332 283.71C222.036 283.71 220.2 277.663 219.281 274.275ZM311.109 274.275C310.19 277.663 308.354 284.204 306.058 284.204C303.762 284.204 301.926 278.087 301.008 275.122C301.008 275.122 307.436 274.275 311.109 274.275Z" fill="white"/>
<path d="M266.619 281.367C288.832 281.367 306.838 285.818 306.838 294.049C306.838 305.328 288.832 307.607 266.619 307.607C244.407 307.607 226.4 307.401 226.4 294.049C226.4 285.818 244.407 281.367 266.619 281.367Z" fill="#7F2828"/>
<path d="M245.62 282.771C253.352 281.851 262.731 283.223 264.052 287.32C265.373 291.417 262.29 292.672 262.32 295.468C262.35 298.263 264.22 299.806 266.255 299.806C268.226 299.806 270.097 298.263 270.127 295.468C270.157 292.672 267.073 291.417 268.394 287.32C269.716 283.223 281.196 281.811 287.619 282.771L283.635 279.949H248.72L245.62 282.771Z" fill="#8F2E2E"/>
<path d="M289.754 306.63C289.759 306.1 286.852 303.899 277.783 302.225C271.426 301.053 268.352 303.793 267.03 303.793C265.709 303.793 262.374 301.053 256.017 302.225C246.948 303.899 243.484 306.66 243.484 306.63C261.137 308.305 271.022 309.387 289.754 306.63Z" fill="#AE3939"/>
<path d="M310.397 274.275C309.804 276.763 308.616 281.565 307.132 281.565C305.648 281.565 304.46 277.073 303.867 274.897C303.867 274.897 308.023 274.275 310.397 274.275ZM226.135 274.74C228.47 274.923 229.4 275.16 229.4 275.16C228.807 277.337 226.655 283.495 225.898 283.495C225.14 283.495 226.729 277.227 226.135 274.74Z" fill="black" fill-opacity="0.05"/>
</g>
<path fill-rule="evenodd" clip-rule="evenodd" d="M341.42 382.269C338.782 386.036 338.406 388.297 338.029 391.688C337.652 395.079 343.303 406.005 343.303 406.005L345.941 402.237C412.953 304.906 428.04 277.825 435.131 262.85C445.767 240.388 426.205 90.3116 424.268 71.5218C422.331 52.7319 420.325 46.1699 408.184 41.1377C396.042 36.1056 377.719 53.783 367.62 70.2524C357.522 86.7217 385.58 112.889 392.98 137.722C397.913 154.277 407.35 191.822 421.29 250.359C421.29 250.359 344.057 378.501 341.42 382.269Z" fill="#8354DB"/>
<g filter="url(#filter0_d)">
<rect width="75.1708" height="75.1708" rx="12" transform="matrix(-0.995887 -0.090607 -0.090607 0.995887 366.513 43.3662)" fill="white"/>
</g>
<path fill-rule="evenodd" clip-rule="evenodd" d="M301.948 98.0223L299.953 97.873L300.102 95.8786L303.136 55.346L303.285 53.3515L305.279 53.5008L349.865 56.8374L351.86 56.9866L351.71 58.981L348.677 99.5137L348.528 101.508L346.533 101.359L301.948 98.0223ZM306.975 57.6389L304.24 94.1827L322.545 95.5525L325.279 59.0087L306.975 57.6389ZM329.268 59.3072L347.572 60.677L344.838 97.2208L326.533 95.851L329.268 59.3072ZM308.665 90.3732L310.66 90.5225L316.74 90.9774L318.734 91.1267L318.883 89.1323L320.703 64.8127L320.852 62.8183L318.858 62.669L312.778 62.214L310.784 62.0648L310.634 64.0592L308.815 88.3788L308.665 90.3732ZM312.953 86.6829L314.474 66.3521L316.565 66.5086L315.044 86.8393L312.953 86.6829Z" fill="#6AE4FB"/>
<g filter="url(#filter1_d)">
<path fill-rule="evenodd" clip-rule="evenodd" d="M332.738 51.9983C340.304 75.6373 364.528 92.2357 378.696 99.9907C392.864 107.746 405.422 118.958 415.086 98.2133C435.415 54.5785 420.57 44.798 390.04 22.9489C373.613 11.1931 362.126 20.7671 350.615 29.2313C340.732 36.4985 329.242 41.0781 332.738 51.9983Z" fill="#9060EB"/>
</g>
<defs>
<filter id="filter0_d" x="280.84" y="34.5557" width="89.6726" height="89.6726" filterUnits="userSpaceOnUse" color-interpolation-filters="sRGB">
<feFlood flood-opacity="0" result="BackgroundImageFix"/>
<feColorMatrix in="SourceAlpha" type="matrix" values="0 0 0 0 0 0 0 0 0 0 0 0 0 0 0 0 0 0 127 0"/>
<feOffset dy="2"/>
<feGaussianBlur stdDeviation="2"/>
<feColorMatrix type="matrix" values="0 0 0 0 0 0 0 0 0 0 0 0 0 0 0 0 0 0 0.12 0"/>
<feBlend mode="normal" in2="BackgroundImageFix" result="effect1_dropShadow"/>
<feBlend mode="normal" in="SourceGraphic" in2="effect1_dropShadow" result="shape"/>
</filter>
<filter id="filter1_d" x="318.556" y="7.71582" width="118.599" height="112.085" filterUnits="userSpaceOnUse" color-interpolation-filters="sRGB">
<feFlood flood-opacity="0" result="BackgroundImageFix"/>
<feColorMatrix in="SourceAlpha" type="matrix" values="0 0 0 0 0 0 0 0 0 0 0 0 0 0 0 0 0 0 127 0"/>
<feOffset dy="4"/>
<feGaussianBlur stdDeviation="1"/>
<feColorMatrix type="matrix" values="0 0 0 0 0 0 0 0 0 0 0 0 0 0 0 0 0 0 0.12 0"/>
<feBlend mode="normal" in2="BackgroundImageFix" result="effect1_dropShadow"/>
<feBlend mode="normal" in="SourceGraphic" in2="effect1_dropShadow" result="shape"/>
</filter>
</defs>
</svg>
